<svg width="171" height="31" viewBox="0 0 171 31" fill="none" xmlns="http://www.w3.org/2000/svg">
<path d="M16.38 23H13.34V17.68H3.46V23H0.42V7.04C0.42 6.30533 0.673334 5.68467 1.18 5.178C1.712 4.646 2.34533 4.38 3.08 4.38H16.38V23ZM13.34 15.02V7.04H3.46V17.3L5.74 15.02H13.34ZM35.7452 20.34C35.7452 21.0747 35.4792 21.708 34.9472 22.24C34.4405 22.7467 33.8198 23 33.0852 23H25.1052V30.98H22.4452V9.7H25.1052V11.6L27.0052 9.7H33.0852C33.8198 9.7 34.4405 9.966 34.9472 10.498C35.4792 11.0047 35.7452 11.6253 35.7452 12.36V20.34ZM33.0852 20.72V11.98H25.1052V22.62L27.0052 20.72H33.0852ZM54.3741 20.34C54.3741 21.0747 54.1081 21.708 53.5761 22.24C53.0694 22.7467 52.4487 23 51.7141 23H43.7341V30.98H41.0741V9.7H43.7341V11.6L45.6341 9.7H51.7141C52.4487 9.7 53.0694 9.966 53.5761 10.498C54.1081 11.0047 54.3741 11.6253 54.3741 12.36V20.34ZM51.7141 20.72V11.98H43.7341V22.62L45.6341 20.72H51.7141ZM62.743 23H60.083V3.62L62.743 0.959998V23ZM81.7608 23H71.1208C70.3861 23 69.7528 22.7467 69.2208 22.24C68.7141 21.708 68.4608 21.0747 68.4608 20.34V12.36C68.4608 11.6253 68.7141 11.0047 69.2208 10.498C69.7528 9.966 70.3861 9.7 71.1208 9.7H79.1008C79.8354 9.7 80.4561 9.966 80.9628 10.498C81.4948 11.0047 81.7608 11.6253 81.7608 12.36V15.02L79.1008 17.68H71.5008L73.7808 15.4H79.1008V11.98H71.1208V20.72H81.7608V23ZM110.829 4.38L106.649 23H101.519L97.9093 9.358H97.5293L93.9193 23H88.7893L84.6093 4.38H88.0293L91.0693 20.416H91.8293L96.1993 4.38H99.2393L103.609 20.416H104.369L107.409 4.38H110.829ZM128.11 20.34C128.11 21.0747 127.844 21.708 127.312 22.24C126.806 22.7467 126.185 23 125.45 23H117.47C116.736 23 116.102 22.7467 115.57 22.24C115.064 21.708 114.81 21.0747 114.81 20.34V12.36C114.81 11.6253 115.064 11.0047 115.57 10.498C116.102 9.966 116.736 9.7 117.47 9.7H125.45C126.185 9.7 126.806 9.966 127.312 10.498C127.844 11.0047 128.11 11.6253 128.11 12.36V20.34ZM125.45 20.72V11.98H117.47V20.72H125.45ZM144.079 15.02H141.419V11.98H136.099V23H133.439V9.7H136.099V11.6L137.999 9.7H141.419C142.154 9.7 142.775 9.966 143.281 10.498C143.813 11.0047 144.079 11.6253 144.079 12.36V15.02ZM151.286 23H148.626V3.62L151.286 0.959998V23ZM170.304 23H167.644V21.1L165.744 23H159.664C158.929 23 158.296 22.7467 157.764 22.24C157.257 21.708 157.004 21.0747 157.004 20.34V12.36C157.004 11.6253 157.257 11.0047 157.764 10.498C158.296 9.966 158.929 9.7 159.664 9.7H167.644V3.62L170.304 0.959998V23ZM167.644 20.72V10.08L165.744 11.98H159.664V20.72H167.644Z" fill="black"/>
</svg>
